<svg width="20" height="20" viewBox="0 0 20 20" fill="none" xmlns="http://www.w3.org/2000/svg">
<path fill-rule="evenodd" clip-rule="evenodd" d="M9.4147 0.512696C9.52689 0.512522 9.63616 0.547723 9.72638 0.613102C9.8166 0.678481 9.88299 0.770572 9.91575 0.87578L11.9325 7.37129L17.9629 9.53236C18.0623 9.56808 18.1484 9.63256 18.2096 9.71727C18.2709 9.80198 18.3044 9.90293 18.3059 10.0068C18.3074 10.1106 18.2767 10.2124 18.2179 10.2988C18.159 10.3851 18.0749 10.4519 17.9765 10.4903L11.9858 12.8237L9.91575 19.6341C9.88348 19.7398 9.8173 19.8325 9.72703 19.8984C9.63677 19.9643 9.52724 19.9999 9.4147 19.9999C9.30217 19.9999 9.19264 19.9643 9.10237 19.8984C9.01211 19.8325 8.94592 19.7398 8.91365 19.6341L6.84356 12.8237L0.852936 10.4903C0.754549 10.4519 0.670375 10.3851 0.611548 10.2988C0.552722 10.2124 0.522014 10.1106 0.523488 10.0068C0.524962 9.90293 0.558548 9.80198 0.619802 9.71727C0.681057 9.63256 0.767095 9.56808 0.866535 9.53236L6.89691 7.37129L8.9147 0.87578C8.94741 0.77074 9.01364 0.67877 9.10365 0.613407C9.19366 0.548044 9.3027 0.512742 9.4147 0.512696ZM9.4147 2.78556L7.8216 7.91387C7.79798 7.98986 7.75668 8.05944 7.70095 8.11711C7.64522 8.17478 7.57659 8.21897 7.50047 8.24618L2.51403 10.0349L7.46595 11.9632C7.53932 11.9919 7.6051 12.0365 7.65836 12.0937C7.71163 12.1509 7.75098 12.2192 7.77348 12.2934L9.41575 17.6925L11.0559 12.2934C11.0784 12.2192 11.1178 12.1509 11.171 12.0937C11.2243 12.0365 11.2901 11.9919 11.3635 11.9632L16.3154 10.0349L11.3289 8.24823C11.2528 8.22102 11.1842 8.17683 11.1285 8.11916C11.0727 8.06149 11.0314 7.99191 11.0078 7.91592L9.4147 2.78556Z" fill="black"/>
<path d="M17.5201 19.6104C17.4155 19.6104 17.3214 19.5284 17.3109 19.4258C17.1226 17.5591 16.9762 16.9642 15.2293 16.8001C15.1247 16.7899 15.041 16.6976 15.041 16.595C15.041 16.4924 15.1247 16.4001 15.2293 16.3899C17.018 16.2258 17.1226 15.7745 17.3109 13.9078C17.3109 13.8052 17.4155 13.7231 17.5201 13.7231C17.6247 13.7231 17.7189 13.8052 17.7293 13.9078C17.9176 15.7745 18.0327 16.2258 19.8109 16.3899C19.9155 16.4001 19.9992 16.4924 19.9992 16.595C19.9992 16.6976 19.9155 16.7899 19.8109 16.8001C18.0536 16.9642 17.9176 17.5591 17.7293 19.4361C17.7293 19.5386 17.6352 19.6207 17.5201 19.6207V19.6104Z" fill="black"/>
<path d="M2.47909 5.8873C2.37449 5.8873 2.28035 5.80524 2.26989 5.70268C2.0816 3.83597 1.93516 3.24109 0.188286 3.07698C0.0836828 3.06673 0 2.97442 0 2.87185C0 2.76929 0.0836828 2.67698 0.188286 2.66672C1.977 2.50261 2.0816 2.05132 2.26989 0.184619C2.26989 0.0820532 2.37449 0 2.47909 0C2.5837 0 2.67784 0.0820532 2.6883 0.184619C2.87659 2.05132 2.99165 2.50261 4.7699 2.66672C4.87451 2.67698 4.95819 2.76929 4.95819 2.87185C4.95819 2.97442 4.87451 3.06673 4.7699 3.07698C3.01257 3.24109 2.87659 3.83597 2.6883 5.71293C2.6883 5.8155 2.59416 5.89755 2.47909 5.89755V5.8873Z" fill="black"/>
</svg>
